<?xml version="1.0" encoding="UTF-8"?>
<svg version="1.1" xmlns="http://www.w3.org/2000/svg" width="512" height="512">
<path d="M0 0 C1.61108364 -0.00462177 3.22216306 -0.01098317 4.83323383 -0.01890898 C9.2129257 -0.03545042 13.59226438 -0.02742599 17.97195673 -0.0149641 C22.71369859 -0.00585302 27.4553829 -0.01991316 32.19711304 -0.03088379 C41.46743962 -0.04860937 50.73763617 -0.0448557 60.00796771 -0.03323323 C67.54655185 -0.02417562 75.08509972 -0.02298494 82.62368774 -0.02732849 C83.69929122 -0.02794142 84.7748947 -0.02855436 85.88309222 -0.02918586 C88.06860599 -0.03046485 90.25411974 -0.0317617 92.43963349 -0.03307623 C112.9017881 -0.04446456 133.36387086 -0.03139577 153.82601368 -0.00987476 C171.35857308 0.00799462 188.8910265 0.00489002 206.42358398 -0.0135498 C226.81578787 -0.03498741 247.20792889 -0.04336609 267.60014248 -0.03110075 C269.77732276 -0.02982664 271.95450305 -0.02856916 274.13168335 -0.02732849 C275.20271516 -0.02671139 276.27374696 -0.02609429 277.37723428 -0.02545848 C284.90105126 -0.02201425 292.42482815 -0.02781389 299.94863892 -0.0372467 C309.12584112 -0.04850023 318.30290657 -0.04535639 327.48009324 -0.02412373 C332.15657842 -0.01365831 336.83283615 -0.00941397 341.50931931 -0.02272034 C345.80019029 -0.03474425 350.09062557 -0.02791926 354.38145769 -0.00681013 C355.92364527 -0.002386 357.46587059 -0.00451447 359.00803339 -0.01431328 C379.96000569 -0.13710333 398.95424802 5.6813793 414.37768555 20.50793457 C419.94988574 26.21626343 424.12538624 32.38369677 427.75268555 39.44543457 C428.07454834 40.06490967 428.39641113 40.68438477 428.72802734 41.32263184 C435.15072519 54.54343514 434.80844128 67.99178047 434.76586914 82.34387207 C434.76993926 84.65126798 434.7752836 86.95866194 434.78179932 89.26605225 C434.79542624 95.5056668 434.79019333 101.74513182 434.78066206 107.98474884 C434.77304149 114.52942799 434.78011772 121.07409474 434.78482056 127.61877441 C434.79121812 139.31012306 434.78132473 151.00140908 434.76604255 162.69274688 C434.75264107 173.27245234 434.7549697 183.85205902 434.76879883 194.4317627 C434.78488823 206.74623948 434.79081091 219.06065337 434.78196204 231.37513924 C434.77729647 237.88335668 434.77662994 244.39150622 434.7865715 250.89971924 C434.7952678 257.0196888 434.78917053 263.13947269 434.77188873 269.2594223 C434.76793812 271.49906863 434.76903336 273.73873071 434.77567673 275.97837067 C434.81350363 290.03147544 434.39365882 302.73187712 427.87768555 315.50793457 C427.36818359 316.51521606 427.36818359 316.51521606 426.84838867 317.54284668 C423.09262781 324.58657198 418.08667933 330.00192723 412.37768555 335.50793457 C411.42829102 336.50373535 411.42829102 336.50373535 410.4597168 337.51965332 C397.99575853 349.76349754 379.23247922 354.7043144 362.28910828 354.61231995 C361.39588499 354.6116134 360.50266171 354.61090685 359.58237106 354.61017889 C356.60094851 354.60681474 353.6195901 354.59646426 350.63818359 354.58630371 C348.49576904 354.58278594 346.35335353 354.57981937 344.2109375 354.57736206 C339.60239259 354.57169572 334.9938595 354.56368679 330.38532066 354.55433846 C323.09392678 354.54114448 315.80258565 354.54289678 308.51118469 354.54856873 C306.66384697 354.54994885 306.66384697 354.54994885 304.77918929 354.55135685 C300.98715146 354.55432772 297.19511383 354.5574925 293.40307617 354.56066895 C277.70677053 354.57346306 262.01071496 354.57542659 246.31445312 354.53210449 C234.86021072 354.50059631 223.40634833 354.49730811 211.95209533 354.52686399 C205.89410134 354.5414037 199.83686766 354.54161661 193.77893639 354.50746346 C188.07974252 354.47560734 182.38179557 354.48112852 176.68262482 354.51496506 C174.59532444 354.52077162 172.50793363 354.51299382 170.42074776 354.49037361 C157.56418188 354.03046283 157.56418188 354.03046283 146.28547668 359.37632751 C144.9476249 360.71930852 143.64035982 362.09403958 142.37768555 363.50793457 C141.17533886 364.55547196 139.96056988 365.58922305 138.7253418 366.59777832 C137.62907673 367.54559592 136.53402302 368.49481641 135.44018555 369.44543457 C131.3186341 373.00442354 127.17320179 376.51870714 122.94018555 379.94543457 C117.8346109 384.08854448 112.87968501 388.39023907 107.92480469 392.71081543 C103.44017703 396.61215098 98.87286885 400.39278619 94.25268555 404.13293457 C90.74220801 407.03289427 87.3093862 410.01554652 83.87768555 413.00793457 C78.72907045 417.4967847 73.5289116 421.89540339 68.19799805 426.16809082 C66.03094661 427.96596313 63.94598742 429.79319036 61.86987305 431.69152832 C60.95443726 432.51511841 60.95443726 432.51511841 60.02050781 433.35534668 C58.83377051 434.42684525 57.65886315 435.51165182 56.49853516 436.61169434 C52.20796038 440.4540095 49.15542061 441.38167813 43.37768555 441.50793457 C40.51771197 440.32664114 38.98689524 439.41263519 37.26083374 436.84936523 C36.02881539 433.58299889 36.12566324 430.72117275 36.12231445 427.23254395 C36.118694 426.50686722 36.11507355 425.78119049 36.11134338 425.03352356 C36.10446231 423.46155553 36.10194153 421.88956368 36.10329056 420.31758118 C36.10425676 417.8292324 36.09130363 415.34131443 36.0743103 412.85302734 C36.02805948 405.77985948 36.00342306 398.70673677 35.99682617 391.63342285 C35.99181477 387.30386033 35.9675873 382.97474955 35.93149948 378.64533997 C35.9216956 376.9963502 35.91937277 375.34729836 35.92467117 373.69828796 C35.93173303 371.39280801 35.91448092 369.08867756 35.8918457 366.7833252 C35.88899567 365.47190552 35.88614563 364.16048584 35.88320923 362.80932617 C35.62854144 359.46605431 35.62854144 359.46605431 33.6239624 357.08436584 C31.11169776 355.32126503 29.95513503 355.00898588 26.9230957 355.00964355 C26.04763092 354.999608 25.17216614 354.98957245 24.27017212 354.97923279 C22.8577272 354.99150658 22.8577272 354.99150658 21.41674805 355.00402832 C20.4345932 354.99460709 19.45243835 354.98518585 18.44052124 354.97547913 C15.29436555 354.94680635 12.14896122 354.94374846 9.00268555 354.94543457 C-16.28698494 354.91589516 -38.77381362 352.42216192 -57.80981445 333.88293457 C-70.68876958 320.78579673 -77.77326378 304.35873786 -77.76948547 286.04812622 C-77.77316216 285.09071923 -77.77683885 284.13331223 -77.78062695 283.14689291 C-77.79164726 279.93601724 -77.79550489 276.72517396 -77.79931641 273.51428223 C-77.80558246 271.21278786 -77.81222939 268.9112945 -77.81922913 266.60980225 C-77.84026067 259.04720767 -77.8506329 251.48461293 -77.8605957 243.92199707 C-77.86464405 241.31555547 -77.868761 238.70911397 -77.87294579 236.10267258 C-77.88981526 225.25602546 -77.90444815 214.40938126 -77.91169453 203.56272316 C-77.91360421 200.75002669 -77.91552457 197.93733023 -77.91748047 195.12463379 C-77.91796421 194.42561087 -77.91844795 193.72658794 -77.91894635 193.00638251 C-77.92723423 181.70036172 -77.95255041 170.39444716 -77.98506115 159.08847268 C-78.01822006 147.46154034 -78.03581925 135.83466729 -78.03933877 124.20768774 C-78.04168423 117.68748652 -78.05057884 111.16745316 -78.07579994 104.64729691 C-78.09917095 98.50605771 -78.10327753 92.36509578 -78.09303856 86.22382355 C-78.09254523 83.97898051 -78.0988052 81.7341234 -78.1125946 79.48932266 C-78.2463382 56.41152364 -74.1290165 37.88898841 -57.62231445 20.50793457 C-41.41272169 4.87457154 -21.82938685 -0.13870261 0 0 Z " fill="#B0D3F0" transform="translate(77.622314453125,34.4920654296875)"/>
<path d="M0 0 C2.51793006 4.16760838 2.50181628 6.17478601 1.8125 11 C-0.44655056 14.08458014 -1.83379018 14.91279504 -5.578125 15.8359375 C-7.48851563 16.10277344 -7.48851563 16.10277344 -9.4375 16.375 C-17.53346947 17.71896409 -21.94878459 20.5862189 -27.5 26.4375 C-30.5150974 31.01598123 -32.22624826 35.16935114 -32.625 40.625 C-33.00687515 44.84724218 -33.83029302 47.17287833 -37.1875 50 C-41.19553597 51.1659741 -43.24032711 51.43240501 -47.0625 49.6875 C-49.1875 48 -49.1875 48 -50.1875 46 C-51.21739785 33.59057507 -49.26333882 23.74605923 -41.16015625 14.12890625 C-31.91005016 4.14611849 -13.94503277 -8.74982448 0 0 Z " fill="#EAEFF0" transform="translate(77.1875,64)"/>
<path d="M0 0 C2.87419731 1.01629076 3.68009344 2.07385657 5.12109375 4.75 C6.86417044 14.99226461 4.32258891 23.93635543 -0.87890625 32.75 C-8.9095778 43.53786878 -17.80976367 49.65554307 -30.87890625 52.75 C-36.35536904 53.51022877 -40.30419902 53.7380516 -45.06640625 50.75 C-47.0559144 47.45702099 -47.70022075 45.47979722 -47.40625 41.6796875 C-46.66553341 38.96921346 -45.24680482 37.31719281 -42.98046875 35.6953125 C-39.43119858 34.09880064 -35.67735967 33.84168302 -31.84765625 33.3203125 C-24.6277241 31.93332553 -20.13328685 27.62865509 -16.05859375 21.71484375 C-14.04039464 18.35340616 -13.11422881 15.14417518 -12.46484375 11.296875 C-11.81032965 7.50291191 -11.26439175 4.41303505 -9.31640625 1.0625 C-6.0291066 -0.70758443 -3.64458759 -0.39334503 0 0 Z " fill="#90BAE1" transform="translate(479.87890625,309.25)"/>
</svg>
